<svg xmlns="http://www.w3.org/2000/svg" xmlns:xlink="http://www.w3.org/1999/xlink" viewBox="0 0 65.33 8.89"><defs><style>.cls-1{fill:url(#Dégradé_sans_nom_53);}.cls-2{fill:url(#Dégradé_sans_nom_53-2);}.cls-3{fill:url(#Dégradé_sans_nom_53-3);}.cls-4{fill:url(#Dégradé_sans_nom_55);}.cls-5{fill:url(#Dégradé_sans_nom_55-2);}.cls-6{fill:url(#Dégradé_sans_nom_55-3);}.cls-7{fill:url(#Dégradé_sans_nom_55-4);}.cls-8{fill:url(#Dégradé_sans_nom_55-5);}.cls-9{fill:url(#Dégradé_sans_nom_55-6);}.cls-10{fill:url(#Dégradé_sans_nom_55-7);}.cls-11{fill:url(#Dégradé_sans_nom_55-8);}</style><linearGradient id="Dégradé_sans_nom_53" x1="46.91" y1="4.39" x2="53.64" y2="4.39" gradientUnits="userSpaceOnUse"><stop offset="0" stop-color="#4563bc"/><stop offset="1" stop-color="#4597bc"/></linearGradient><linearGradient id="Dégradé_sans_nom_53-2" x1="52.4" y1="5.76" x2="58.28" y2="5.76" xlink:href="#Dégradé_sans_nom_53"/><linearGradient id="Dégradé_sans_nom_53-3" x1="59.29" y1="4.5" x2="65.33" y2="4.5" xlink:href="#Dégradé_sans_nom_53"/><linearGradient id="Dégradé_sans_nom_55" y1="4.39" x2="8.02" y2="4.39" gradientUnits="userSpaceOnUse"><stop offset="0" stop-color="#45bfbc"/><stop offset="1" stop-color="#45dbbc"/></linearGradient><linearGradient id="Dégradé_sans_nom_55-2" x1="8.03" y1="4.9" x2="15.86" y2="4.9" xlink:href="#Dégradé_sans_nom_55"/><linearGradient id="Dégradé_sans_nom_55-3" x1="16.78" y1="5.65" x2="20.68" y2="5.65" xlink:href="#Dégradé_sans_nom_55"/><linearGradient id="Dégradé_sans_nom_55-4" x1="20.82" y1="5.75" x2="26.18" y2="5.75" xlink:href="#Dégradé_sans_nom_55"/><linearGradient id="Dégradé_sans_nom_55-5" x1="27.04" y1="5.75" x2="32.81" y2="5.75" xlink:href="#Dégradé_sans_nom_55"/><linearGradient id="Dégradé_sans_nom_55-6" x1="33.32" y1="4.94" x2="37.33" y2="4.94" xlink:href="#Dégradé_sans_nom_55"/><linearGradient id="Dégradé_sans_nom_55-7" x1="38.17" y1="4.34" x2="39.96" y2="4.34" xlink:href="#Dégradé_sans_nom_55"/><linearGradient id="Dégradé_sans_nom_55-8" x1="40.64" y1="4.39" x2="47.78" y2="4.39" xlink:href="#Dégradé_sans_nom_55"/></defs><title>Fichier 3</title><g id="Calque_2" data-name="Calque 2"><g id="Calque_1-2" data-name="Calque 1"><path class="cls-1" d="M49.86,6.72h.07l.31-1L52,.58A.71.71,0,0,1,52.66.1h1L50.77,8.21a.71.71,0,0,1-.67.48h-.41A.71.71,0,0,1,49,8.22L46.91,2.39l.87-1.13"/><path class="cls-2" d="M58.18,7.29a3.18,3.18,0,0,1-1,1.14,2.93,2.93,0,0,1-1.68.46,3.05,3.05,0,0,1-1.22-.24,2.81,2.81,0,0,1-1-.65,3,3,0,0,1-.63-1,3.2,3.2,0,0,1-.23-1.25,3.46,3.46,0,0,1,.21-1.21,3.27,3.27,0,0,1,.61-1,2.78,2.78,0,0,1,.94-.67,2.91,2.91,0,0,1,1.23-.26,3.07,3.07,0,0,1,1.21.23,2.59,2.59,0,0,1,.91.64,2.72,2.72,0,0,1,.57,1,4,4,0,0,1,.2,1.26v.11a.45.45,0,0,0,0,.11.29.29,0,0,0,0,.09H53.73a1.88,1.88,0,0,0,.2.74,1.77,1.77,0,0,0,.42.51,1.44,1.44,0,0,0,.54.3,1.78,1.78,0,0,0,.59.1,1.51,1.51,0,0,0,1-.28A2.21,2.21,0,0,0,57,6.73ZM57,5a2,2,0,0,0-.12-.4,1.33,1.33,0,0,0-.27-.41,1.66,1.66,0,0,0-.48-.31,1.74,1.74,0,0,0-.72-.14,1.52,1.52,0,0,0-1,.35,1.71,1.71,0,0,0-.56.91Z"/><path class="cls-3" d="M59.29.1h1.33V2.76l-.07.81h.07a2,2,0,0,1,.73-.66,2.32,2.32,0,0,1,1.18-.29,2.49,2.49,0,0,1,1.07.24,2.59,2.59,0,0,1,.89.65,3.32,3.32,0,0,1,.62,1,3.4,3.4,0,0,1,.22,1.26A3.39,3.39,0,0,1,65.11,7a3.32,3.32,0,0,1-.62,1,2.59,2.59,0,0,1-.89.65,2.49,2.49,0,0,1-1.07.24,2.42,2.42,0,0,1-1.18-.28,2,2,0,0,1-.73-.67h-.07V8.7H59.29Zm3,7.55a1.65,1.65,0,0,0,.66-.13,1.6,1.6,0,0,0,.55-.38,1.87,1.87,0,0,0,.38-.59A2.18,2.18,0,0,0,64,5.76a2.24,2.24,0,0,0-.14-.8,1.87,1.87,0,0,0-.38-.59A1.75,1.75,0,0,0,62.93,4a1.74,1.74,0,0,0-1.32,0,1.68,1.68,0,0,0-.54.37,1.81,1.81,0,0,0-.38.6,2,2,0,0,0-.14.8,2,2,0,0,0,.14.79,1.81,1.81,0,0,0,.38.6,1.68,1.68,0,0,0,.54.37A1.65,1.65,0,0,0,62.27,7.65Z"/><path class="cls-4" d="M3.81.1H4.2A.82.82,0,0,1,5,.64l3,8H6.64a.19.19,0,0,1-.17-.12L5.74,6.48H2.28L1.54,8.57a.17.17,0,0,1-.17.12H0l3-8A.84.84,0,0,1,3.81.1ZM5.28,5.24l-.9-2.53L4,1.7H4l-.33,1-.9,2.53Z"/><path class="cls-5" d="M10.39,6.6a1.68,1.68,0,0,0,0,.4.83.83,0,0,0,.14.3.67.67,0,0,0,.52.22,1.12,1.12,0,0,0,.29,0l.24-.09.24,1.23-.46.12a3.89,3.89,0,0,1-.53,0,1.92,1.92,0,0,1-.74-.13,1.8,1.8,0,0,1-.56-.36,1.86,1.86,0,0,1-.52-1.4V4H8V2.81h1V1h1.33v1.8h2.5V1h1.33v1.8h1.45V4H14.22V6.6a1.68,1.68,0,0,0,0,.4.83.83,0,0,0,.14.3.78.78,0,0,0,.24.16.74.74,0,0,0,.28.06,1.24,1.24,0,0,0,.31,0l.23-.09.39,1.18a4,4,0,0,1-.52.15,3.1,3.1,0,0,1-.63,0A1.88,1.88,0,0,1,14,8.65a1.64,1.64,0,0,1-.55-.36,1.8,1.8,0,0,1-.53-1.4V4h-2.5Z"/><path class="cls-6" d="M16.78,2.81H18V3.7h.07a1.55,1.55,0,0,1,.29-.43,2.72,2.72,0,0,1,.42-.34,2.38,2.38,0,0,1,.49-.22,1.56,1.56,0,0,1,.5-.09,1.76,1.76,0,0,1,.49,0,2.15,2.15,0,0,1,.38.15L20.29,4A1.23,1.23,0,0,0,20,3.94a2.21,2.21,0,0,0-.39,0A1.47,1.47,0,0,0,19,4a1.51,1.51,0,0,0-.47.37,1.61,1.61,0,0,0-.32.54,2.08,2.08,0,0,0-.11.66V8.69H16.78Z"/><path class="cls-7" d="M24.88,8H24.8a2.77,2.77,0,0,1-.68.63,1.87,1.87,0,0,1-1.07.28,2.49,2.49,0,0,1-.87-.15,2.09,2.09,0,0,1-.71-.42A2,2,0,0,1,21,7.67a1.92,1.92,0,0,1-.17-.81,1.8,1.8,0,0,1,.7-1.46A2.34,2.34,0,0,1,22.31,5a3.41,3.41,0,0,1,1-.14,3.53,3.53,0,0,1,1,.12,3.34,3.34,0,0,1,.6.21V5a1,1,0,0,0-.12-.49,1,1,0,0,0-.31-.39A1.43,1.43,0,0,0,24,3.83a1.55,1.55,0,0,0-.53-.09,1.77,1.77,0,0,0-.8.18,1.73,1.73,0,0,0-.63.56L21,3.78a2.81,2.81,0,0,1,1-.87,3.25,3.25,0,0,1,1.42-.29,2.92,2.92,0,0,1,2,.64,2.37,2.37,0,0,1,.71,1.85V8.69h-1.3Zm0-1.73A2.83,2.83,0,0,0,24.29,6a2.48,2.48,0,0,0-.75-.1,1.6,1.6,0,0,0-1,.29.84.84,0,0,0-.37.7.72.72,0,0,0,.09.37,1.16,1.16,0,0,0,.25.29,1,1,0,0,0,.35.18,1.34,1.34,0,0,0,.4.06,1.68,1.68,0,0,0,.62-.13,1.75,1.75,0,0,0,.51-.34,1.61,1.61,0,0,0,.34-.48A1.35,1.35,0,0,0,24.88,6.24Z"/><path class="cls-8" d="M32.81,7.19a3,3,0,0,1-.42.65,2.44,2.44,0,0,1-.57.54,2.69,2.69,0,0,1-.76.37,3.21,3.21,0,0,1-.95.13,3.34,3.34,0,0,1-1.24-.23,3,3,0,0,1-1-.66,3.19,3.19,0,0,1-.64-1A3.42,3.42,0,0,1,27,5.75a3.39,3.39,0,0,1,.22-1.25,3.23,3.23,0,0,1,.64-1,3,3,0,0,1,1-.65,3.15,3.15,0,0,1,1.24-.23,3.1,3.1,0,0,1,.94.13,3,3,0,0,1,.76.36,2.94,2.94,0,0,1,.57.54,3.06,3.06,0,0,1,.38.65l-1.22.51A1.76,1.76,0,0,0,31,4.1a1.6,1.6,0,0,0-.91-.25,1.57,1.57,0,0,0-.64.14,1.6,1.6,0,0,0-.54.38,1.84,1.84,0,0,0-.37.6,1.94,1.94,0,0,0-.14.78,1.94,1.94,0,0,0,.14.78,1.69,1.69,0,0,0,.37.59,1.63,1.63,0,0,0,.54.39,1.56,1.56,0,0,0,.64.13A1.67,1.67,0,0,0,31,7.39a1.8,1.8,0,0,0,.61-.72Z"/><path class="cls-9" d="M34.36,4h-1V2.81h1V1h1.33v1.8h1.45V4H35.69V6.67a1.36,1.36,0,0,0,.05.41,1,1,0,0,0,.14.31.68.68,0,0,0,.52.23,1.26,1.26,0,0,0,.3,0l.22-.09.41,1.18a4.1,4.1,0,0,1-.53.15,3.8,3.8,0,0,1-.62.05,2.08,2.08,0,0,1-.74-.13,1.87,1.87,0,0,1-.57-.37A2,2,0,0,1,34.36,7Z"/><path class="cls-10" d="M39.07,1.8a.88.88,0,0,1-.64-.26A.9.9,0,0,1,38.17.9a.9.9,0,0,1,.26-.64A.88.88,0,0,1,39.07,0a.86.86,0,0,1,.63.26A.9.9,0,0,1,40,.9a.9.9,0,0,1-.26.64A.86.86,0,0,1,39.07,1.8ZM38.4,8.69V2.81h1.33V8.69Z"/><path class="cls-11" d="M46.51,1.26h1.27L45.32,8.07a.94.94,0,0,1-.88.62h-.1a.93.93,0,0,1-.88-.63L40.64.1h1.3a.26.26,0,0,1,.25.18L44,5.74l.31,1h.07"/></g></g></svg>