<svg xmlns="http://www.w3.org/2000/svg" xmlns:xlink="http://www.w3.org/1999/xlink" viewBox="0 0 43.62 35.43"><defs><style>.cls-1{fill:url(#Dégradé_sans_nom_55);}.cls-2{fill:url(#Dégradé_sans_nom_53);}.cls-3{fill:url(#Dégradé_sans_nom_53-2);}.cls-4{fill:url(#Dégradé_sans_nom_53-3);}.cls-5{fill:url(#Dégradé_sans_nom_53-4);}.cls-6{fill:url(#Dégradé_sans_nom_53-5);}</style><linearGradient id="Dégradé_sans_nom_55" y1="17.72" x2="35.43" y2="17.72" gradientUnits="userSpaceOnUse"><stop offset="0" stop-color="#45bfbc"/><stop offset="1" stop-color="#45dbbc"/></linearGradient><linearGradient id="Dégradé_sans_nom_53" x1="15.35" y1="23.19" x2="43.62" y2="23.19" gradientUnits="userSpaceOnUse"><stop offset="0" stop-color="#4563bc"/><stop offset="1" stop-color="#4597bc"/></linearGradient><linearGradient id="Dégradé_sans_nom_53-2" x1="20.28" y1="25.36" x2="26.8" y2="25.36" xlink:href="#Dégradé_sans_nom_53"/><linearGradient id="Dégradé_sans_nom_53-3" x1="28.91" y1="21.11" x2="38.61" y2="21.11" xlink:href="#Dégradé_sans_nom_53"/><linearGradient id="Dégradé_sans_nom_53-4" x1="28.91" y1="25.52" x2="38.61" y2="25.52" xlink:href="#Dégradé_sans_nom_53"/><linearGradient id="Dégradé_sans_nom_53-5" x1="28.91" y1="29.62" x2="38.61" y2="29.62" xlink:href="#Dégradé_sans_nom_53"/></defs><title>Fichier 6</title><g id="Calque_2" data-name="Calque 2"><g id="Calque_1-2" data-name="Calque 1"><circle class="cls-1" cx="17.72" cy="17.72" r="17.72"/><path class="cls-2" d="M41.18,11H17.79a2.44,2.44,0,0,0-2.44,2.44V32.93a2.44,2.44,0,0,0,2.44,2.44H41.18a2.44,2.44,0,0,0,2.44-2.44V13.46A2.44,2.44,0,0,0,41.18,11ZM24.26,13.26a1.06,1.06,0,0,1,0,2.12,1.06,1.06,0,0,1,0-2.12Zm-2.74,0a1.06,1.06,0,1,1-1.06,1.06A1.06,1.06,0,0,1,21.52,13.26Zm-2.77,0a1.06,1.06,0,1,1-1.06,1.06A1.06,1.06,0,0,1,18.75,13.26Zm23,19.41a.79.79,0,0,1-.8.79H18a.79.79,0,0,1-.8-.79V18.21a.8.8,0,0,1,.8-.8h23a.8.8,0,0,1,.8.8Z"/><rect class="cls-3" x="20.28" y="20.07" width="6.52" height="10.59" rx="1.02"/><rect class="cls-4" x="28.91" y="20.07" width="9.7" height="2.07" rx="0.68"/><rect class="cls-5" x="28.91" y="24.48" width="9.7" height="2.07" rx="0.68"/><rect class="cls-6" x="28.91" y="28.59" width="9.7" height="2.07" rx="0.68"/></g></g></svg>