<svg xmlns="http://www.w3.org/2000/svg" xmlns:xlink="http://www.w3.org/1999/xlink" viewBox="0 0 35.37 40.94"><defs><style>.cls-1{fill:url(#Dégradé_sans_nom_55);}.cls-2{fill:url(#Dégradé_sans_nom_53);}.cls-3{fill:url(#Dégradé_sans_nom_53-2);}</style><linearGradient id="Dégradé_sans_nom_55" y1="17.68" x2="35.37" y2="17.68" gradientUnits="userSpaceOnUse"><stop offset="0" stop-color="#45bfbc"/><stop offset="1" stop-color="#45dbbc"/></linearGradient><linearGradient id="Dégradé_sans_nom_53" x1="9.83" y1="23.09" x2="33.16" y2="23.09" gradientUnits="userSpaceOnUse"><stop offset="0" stop-color="#4563bc"/><stop offset="1" stop-color="#4597bc"/></linearGradient><linearGradient id="Dégradé_sans_nom_53-2" x1="1.99" y1="30.33" x2="25.58" y2="30.33" xlink:href="#Dégradé_sans_nom_53"/></defs><title>Fichier 7</title><g id="Calque_2" data-name="Calque 2"><g id="Calque_1-2" data-name="Calque 1"><circle class="cls-1" cx="17.68" cy="17.68" r="17.68"/><path class="cls-2" d="M30.45,12.51H12.54a2.71,2.71,0,0,0-2.71,2.71V26.85a2.71,2.71,0,0,0,2.71,2.71H24.72l3.76,3.68a1.52,1.52,0,0,0,.87.42,1.13,1.13,0,0,0,.92-.25,1.12,1.12,0,0,0,.35-.85v-3a2.7,2.7,0,0,0,2.54-2.7V15.22A2.71,2.71,0,0,0,30.45,12.51ZM29.34,25.07a.69.69,0,0,1-.68.69H21a.68.68,0,0,1-.68-.69v-.85a.68.68,0,0,1,.68-.69h7.65a.69.69,0,0,1,.68.69Zm0-3.82a.69.69,0,0,1-.68.69H14.28a.68.68,0,0,1-.68-.69V20.4a.68.68,0,0,1,.68-.69H28.66a.69.69,0,0,1,.68.69Zm0-3.82a.69.69,0,0,1-.68.69H14.28a.68.68,0,0,1-.68-.69v-.86a.68.68,0,0,1,.68-.68H28.66a.69.69,0,0,1,.68.68Z"/><path class="cls-3" d="M23.12,31.58v2a.66.66,0,0,1-.65.66H10.09a.79.79,0,0,0-.56.23l-2.3,2.31V34.73a.61.61,0,0,0-.61-.6H5.23a.57.57,0,0,1-.57-.57V23.07a.79.79,0,0,1,.79-.79h2a.2.2,0,0,0,.2-.2V19.91a.2.2,0,0,0-.2-.2h-2A3.5,3.5,0,0,0,2,23.21V33.43a3.29,3.29,0,0,0,2.67,3.23.2.2,0,0,1,.17.2l-.1,2.53a1.55,1.55,0,0,0,.32,1,1.16,1.16,0,0,0,.94.5,1.4,1.4,0,0,0,1-.46l3.7-3.7a.2.2,0,0,1,.15-.06H22.08a3.5,3.5,0,0,0,3.5-3.49l-2.12-1.79A.2.2,0,0,0,23.12,31.58Z"/></g></g></svg>